<svg width="80" height="115" viewBox="0 0 80 115" fill="none" xmlns="http://www.w3.org/2000/svg">
<path d="M76.7437 49.2072C78.2358 43.5495 78.4012 37.6237 77.2271 31.8916C76.053 26.1595 73.571 20.7759 69.9746 16.1605C66.3783 11.5451 61.7648 7.82253 56.4936 5.28291C51.2223 2.74328 45.4359 1.45523 39.5851 1.51911C33.7344 1.583 27.9774 2.99713 22.7629 5.65125C17.5483 8.30537 13.0172 12.1278 9.5225 16.8206C6.02781 21.5135 3.66394 26.9499 2.61527 32.7062C1.5666 38.4626 1.86146 44.3834 3.47672 50.0071" stroke="#E9C664" stroke-width="3" stroke-linecap="round" stroke-linejoin="round"/>
<path d="M76.7487 48.3011C76.7487 48.3011 77.1867 95.7061 60.3637 104.268C54.1097 107.45 49.6927 109.888 46.6097 111.695C44.6054 112.866 42.3259 113.483 40.0047 113.483C37.6835 113.483 35.404 112.866 33.3997 111.695C30.3177 109.888 25.8998 107.451 19.6468 104.268C2.82377 95.7061 3.48173 49.0901 3.48173 49.0901C36.3317 35.7681 27.4717 3.6001 27.4717 3.6001" stroke="#E9C664" stroke-width="3" stroke-linecap="round" stroke-linejoin="round"/>
<path d="M76.7477 48.6783C76.7477 48.6783 41.5728 48.8242 27.6968 21.6562" stroke="#E9C664" stroke-width="3" stroke-linecap="round" stroke-linejoin="round"/>
</svg>
