<svg width="110" height="34" viewBox="0 0 110 34" fill="none" xmlns="http://www.w3.org/2000/svg">
<path d="M108.486 1.5C107.844 4.28537 106.448 6.85206 104.441 8.93236C102.329 11.0911 99.6848 12.6875 96.7603 13.5697C93.8359 14.4518 90.7285 14.5904 87.7335 13.9723C81.194 12.6893 78.1946 9.74132 76.9774 8.07396C75.753 6.3336 74.0897 4.92936 72.1475 3.99612C66.6739 1.47944 61.0644 3.4513 57.8123 5.13676C56.9464 5.58683 55.9801 5.82226 54.9987 5.82226C54.0173 5.82226 53.051 5.58683 52.185 5.13676C48.933 3.4513 43.3235 1.47944 37.8499 3.99612C35.9078 4.92961 34.2446 6.3338 33.02 8.07396C31.8163 9.71993 28.8684 12.6259 22.4758 13.9295C19.4528 14.5846 16.3074 14.469 13.3436 13.5937C10.3798 12.7185 7.69783 11.1133 5.55677 8.93316C3.55094 6.85244 2.15484 4.28549 1.5141 1.5C1.5141 1.5 -0.760625 50.3028 52.4655 25.4422C53.2566 25.0735 54.1225 24.8822 54.9995 24.8822C55.8765 24.8822 56.7424 25.0735 57.5336 25.4422C110.766 50.3028 108.486 1.5 108.486 1.5Z" stroke="#E9C664" stroke-width="3" stroke-linecap="round" stroke-linejoin="round"/>
</svg>
