<svg width="114" height="97" viewBox="0 0 114 97" fill="none" xmlns="http://www.w3.org/2000/svg">
<path d="M100.831 95.5005C100.831 95.5005 97.913 81.4625 107.031 60.3135C107.031 60.3135 109.949 48.6455 101.924 43.3585C101.924 43.3585 104.577 40.6235 112.005 47.0955C112.005 47.0955 103.018 28.0435 93.352 24.2145C93.352 24.2145 99.918 22.3915 103.566 17.2865C103.566 17.2865 91.5279 18.0155 85.3269 14.9165C85.3269 14.9165 93.352 12.1815 96.818 4.52446C96.818 4.52446 92.278 6.50247 83.383 5.99647C79.9267 5.78962 76.5049 5.19214 73.183 4.21547C64.874 1.79947 38.906 -3.76653 21.49 14.5515C20.3883 12.9808 18.8529 11.7651 17.0716 11.0528C15.2902 10.3405 13.3399 10.1625 11.459 10.5405L11.5509 10.5765C12.4061 10.9286 13.1574 11.4929 13.7338 12.2161C14.3102 12.9394 14.6927 13.7977 14.845 14.7099C14.9974 15.6221 14.9146 16.5581 14.6045 17.4294C14.2945 18.3007 13.7674 19.0786 13.073 19.6895C10.2831 22.2109 7.95308 25.1984 6.18705 28.5184C1.8714 36.601 0.841835 46.0374 3.31303 54.8605C6.39103 66.0195 12.021 88.5935 9.29399 95.4995C9.29399 95.4995 19.666 72.3455 20.578 50.8325C20.578 50.8325 55.778 62.8655 94.262 50.8325C94.265 50.8335 92.623 82.1895 100.831 95.5005Z" stroke="#E9C664" stroke-width="3" stroke-linecap="round" stroke-linejoin="round"/>
</svg>
