<svg width="94" height="83" viewBox="0 0 94 83" fill="none" xmlns="http://www.w3.org/2000/svg">
<path d="M86.2384 2C86.2384 2 81.1274 10.678 66.5515 10.678C66.5515 10.678 58.4495 27.2594 46.7886 14.2446C35.1285 27.2603 27.0265 10.678 27.0265 10.678C12.4574 10.6746 7.75952 2 7.75952 2C7.75952 2 -1.94449 19.6959 2.81247 36.9605L7.75952 30.4661C7.75952 30.4661 7.75954 48.943 15.1806 57.0508L19.3663 45.7381C19.3663 45.7381 22.4081 63.8384 29.4506 68.7404L32.685 60.2558C32.685 60.2558 39.5518 65.6409 38.2615 81C38.2615 81 57.6332 75.733 61.3163 60.2558L64.5507 68.7404C71.5906 63.8384 74.6349 45.7381 74.6349 45.7381L78.8208 57.0508C86.2418 48.943 86.2417 30.4661 86.2417 30.4661L91.1888 36.9572C95.9433 19.6925 86.2384 2 86.2384 2Z" stroke="#E9C664" stroke-width="3" stroke-linecap="round" stroke-linejoin="round"/>
</svg>
