<svg width="66" height="98" viewBox="0 0 66 98" fill="none" xmlns="http://www.w3.org/2000/svg">
<path d="M22.3893 72.9166L28.3009 52.0296C28.3009 52.0296 16.2203 23.6782 12.9384 15.7121C9.6565 7.74596 16.3519 2 16.3519 2L33.1183 41.9624H33.1343L49.9016 2C49.9016 2 56.5987 7.74596 53.3168 15.7121C50.0349 23.6782 37.9526 52.0296 37.9526 52.0296L43.8238 72.7714" stroke="#E9C664" stroke-width="3" stroke-linecap="round" stroke-linejoin="round"/>
<path d="M27.6714 83.2337C27.6716 86.1016 26.7007 88.886 24.9153 91.1381C23.1299 93.3902 20.6341 94.9788 17.83 95.6478C15.0259 96.3168 12.077 96.0273 9.45858 94.8258C6.84017 93.6244 4.70483 91.5811 3.39671 89.0253C2.08859 86.4695 1.68392 83.55 2.24793 80.7375C2.81194 77.925 4.31175 75.3833 6.50566 73.5221C8.69956 71.661 11.4597 70.5887 14.3412 70.4782C17.2227 70.3677 20.0577 71.2255 22.3892 72.9131" stroke="#E9C664" stroke-width="3" stroke-linecap="round" stroke-linejoin="round"/>
<path d="M43.8228 72.7714C46.1771 71.136 49.015 70.3335 51.8822 70.4921C54.7495 70.6508 57.4803 71.7614 59.6377 73.6464C61.7951 75.5314 63.2543 78.0816 63.7818 80.889C64.3093 83.6964 63.8746 86.5987 62.5473 89.1313C61.2199 91.6639 59.0766 93.6804 56.4605 94.8581C53.8443 96.0358 50.9066 96.3067 48.1173 95.6273C45.3281 94.9479 42.8486 93.3575 41.0758 91.1107C39.3029 88.8639 38.3392 86.0906 38.3389 83.2346" stroke="#E9C664" stroke-width="3" stroke-linecap="round" stroke-linejoin="round"/>
<path d="M27.6714 83.2335C27.7558 79.6926 28.451 58.5867 33.0077 58.5867C37.5795 58.5867 38.2553 79.701 38.3338 83.0649" stroke="#E9C664" stroke-width="3" stroke-linecap="round" stroke-linejoin="round"/>
</svg>
